<svg xmlns="http://www.w3.org/2000/svg" viewBox="0 0 32 32">
  <!-- terminal window frame -->
  <rect width="32" height="32" rx="5" fill="#292c26"/>
  <rect x="0" y="0" width="32" height="8" rx="5" fill="#3a3d35"/>
  <rect x="0" y="4" width="32" height="4" fill="#3a3d35"/>
  <!-- traffic lights -->
  <circle cx="5.5" cy="4" r="1.8" fill="#ff5f57"/>
  <circle cx="11" cy="4" r="1.8" fill="#ffbd2e"/>
  <circle cx="16.5" cy="4" r="1.8" fill="#28c840"/>
  <!-- jh — JetBrains Mono Bold outlines, extracted via opentype.js -->
  <path
    transform="matrix(16,0,0,16,6,25)"
    fill="#97a584"
    d="M0.233000 0.180000L0.081000 0.180000L0.081000 0.067000L0.226000 0.067000Q0.274000 0.067000 0.302000 0.038500Q0.330000 0.010000 0.330000-0.039000L0.330000-0.437000L0.076000-0.437000L0.076000-0.550000L0.455000-0.550000L0.455000-0.036000Q0.455000 0.064000 0.395000 0.122000Q0.335000 0.180000 0.233000 0.180000M0.386000-0.642000Q0.348000-0.642000 0.326000-0.661500Q0.304000-0.681000 0.304000-0.714000Q0.304000-0.747000 0.326000-0.766500Q0.348000-0.786000 0.386000-0.786000Q0.424000-0.786000 0.446000-0.766500Q0.468000-0.747000 0.468000-0.714000Q0.468000-0.681000 0.446000-0.661500Q0.424000-0.642000 0.386000-0.642000M0.802000 0L0.677000 0L0.677000-0.730000L0.802000-0.730000L0.802000-0.550000L0.799000-0.448000Q0.809000-0.500000 0.848000-0.530000Q0.887000-0.560000 0.947000-0.560000Q1.028000-0.560000 1.076500-0.506000Q1.125000-0.452000 1.125000-0.361000L1.125000 0L1 0L1-0.346000Q1-0.397000 0.973500-0.424500Q0.947000-0.452000 0.902000-0.452000Q0.855000-0.452000 0.828500-0.424000Q0.802000-0.396000 0.802000-0.344000"
  />
</svg>
